<mxfile host="app.diagrams.net" modified="2023-12-21T22:23:20.526Z" agent="Mozilla/5.0 (Macintosh; Intel Mac OS X 10_15_7) AppleWebKit/605.1.15 (KHTML, like Gecko) Version/17.2 Safari/605.1.15" etag="PIyGUTmEPkAvtRED5mDy" version="22.1.11" type="device">
  <diagram name="Page-1" id="y2ZMLpbdhyx-fxlHNAmN">
    <mxGraphModel dx="2074" dy="1077" grid="1" gridSize="10" guides="1" tooltips="1" connect="1" arrows="1" fold="1" page="1" pageScale="1" pageWidth="1169" pageHeight="827" background="#7D7D7D" math="0" shadow="0">
      <root>
        <mxCell id="0" />
        <mxCell id="1" parent="0" />
        <mxCell id="Tk0lirJEVOjgyeA5Guif-1" value="AWS Account" style="points=[[0,0],[0.25,0],[0.5,0],[0.75,0],[1,0],[1,0.25],[1,0.5],[1,0.75],[1,1],[0.75,1],[0.5,1],[0.25,1],[0,1],[0,0.75],[0,0.5],[0,0.25]];outlineConnect=0;gradientColor=none;html=1;whiteSpace=wrap;fontSize=12;fontStyle=0;container=1;pointerEvents=0;collapsible=0;recursiveResize=0;shape=mxgraph.aws4.group;grIcon=mxgraph.aws4.group_account;strokeColor=#CD2264;fillColor=none;verticalAlign=top;align=left;spacingLeft=30;fontColor=#CD2264;dashed=0;" vertex="1" parent="1">
          <mxGeometry x="250" y="60" width="1260" height="520" as="geometry" />
        </mxCell>
        <mxCell id="Tk0lirJEVOjgyeA5Guif-3" value="API Gateway" style="sketch=0;points=[[0,0,0],[0.25,0,0],[0.5,0,0],[0.75,0,0],[1,0,0],[0,1,0],[0.25,1,0],[0.5,1,0],[0.75,1,0],[1,1,0],[0,0.25,0],[0,0.5,0],[0,0.75,0],[1,0.25,0],[1,0.5,0],[1,0.75,0]];outlineConnect=0;fontColor=#232F3E;fillColor=#8C4FFF;strokeColor=#ffffff;dashed=0;verticalLabelPosition=bottom;verticalAlign=top;align=center;html=1;fontSize=12;fontStyle=0;aspect=fixed;shape=mxgraph.aws4.resourceIcon;resIcon=mxgraph.aws4.api_gateway;" vertex="1" parent="Tk0lirJEVOjgyeA5Guif-1">
          <mxGeometry x="70" y="251" width="78" height="78" as="geometry" />
        </mxCell>
        <mxCell id="Tk0lirJEVOjgyeA5Guif-4" value="SQS Queue" style="sketch=0;points=[[0,0,0],[0.25,0,0],[0.5,0,0],[0.75,0,0],[1,0,0],[0,1,0],[0.25,1,0],[0.5,1,0],[0.75,1,0],[1,1,0],[0,0.25,0],[0,0.5,0],[0,0.75,0],[1,0.25,0],[1,0.5,0],[1,0.75,0]];outlineConnect=0;fontColor=#232F3E;fillColor=#E7157B;strokeColor=#ffffff;dashed=0;verticalLabelPosition=bottom;verticalAlign=top;align=center;html=1;fontSize=12;fontStyle=0;aspect=fixed;shape=mxgraph.aws4.resourceIcon;resIcon=mxgraph.aws4.sqs;" vertex="1" parent="Tk0lirJEVOjgyeA5Guif-1">
          <mxGeometry x="220" y="251" width="78" height="78" as="geometry" />
        </mxCell>
        <mxCell id="Tk0lirJEVOjgyeA5Guif-5" value="Producer Lamda" style="sketch=0;points=[[0,0,0],[0.25,0,0],[0.5,0,0],[0.75,0,0],[1,0,0],[0,1,0],[0.25,1,0],[0.5,1,0],[0.75,1,0],[1,1,0],[0,0.25,0],[0,0.5,0],[0,0.75,0],[1,0.25,0],[1,0.5,0],[1,0.75,0]];outlineConnect=0;fontColor=#232F3E;fillColor=#ED7100;strokeColor=#ffffff;dashed=0;verticalLabelPosition=bottom;verticalAlign=top;align=center;html=1;fontSize=12;fontStyle=0;aspect=fixed;shape=mxgraph.aws4.resourceIcon;resIcon=mxgraph.aws4.lambda;" vertex="1" parent="Tk0lirJEVOjgyeA5Guif-1">
          <mxGeometry x="380" y="251" width="78" height="78" as="geometry" />
        </mxCell>
        <mxCell id="Tk0lirJEVOjgyeA5Guif-21" style="edgeStyle=orthogonalEdgeStyle;rounded=0;orthogonalLoop=1;jettySize=auto;html=1;" edge="1" parent="Tk0lirJEVOjgyeA5Guif-1" source="Tk0lirJEVOjgyeA5Guif-6" target="Tk0lirJEVOjgyeA5Guif-7">
          <mxGeometry relative="1" as="geometry" />
        </mxCell>
        <mxCell id="Tk0lirJEVOjgyeA5Guif-6" value="Managed Service&lt;br&gt;for Kafka" style="sketch=0;points=[[0,0,0],[0.25,0,0],[0.5,0,0],[0.75,0,0],[1,0,0],[0,1,0],[0.25,1,0],[0.5,1,0],[0.75,1,0],[1,1,0],[0,0.25,0],[0,0.5,0],[0,0.75,0],[1,0.25,0],[1,0.5,0],[1,0.75,0]];outlineConnect=0;fontColor=#232F3E;fillColor=#8C4FFF;strokeColor=#ffffff;dashed=0;verticalLabelPosition=bottom;verticalAlign=top;align=center;html=1;fontSize=12;fontStyle=0;aspect=fixed;shape=mxgraph.aws4.resourceIcon;resIcon=mxgraph.aws4.managed_streaming_for_kafka;" vertex="1" parent="Tk0lirJEVOjgyeA5Guif-1">
          <mxGeometry x="530" y="251" width="78" height="78" as="geometry" />
        </mxCell>
        <mxCell id="Tk0lirJEVOjgyeA5Guif-22" style="edgeStyle=orthogonalEdgeStyle;rounded=0;orthogonalLoop=1;jettySize=auto;html=1;" edge="1" parent="Tk0lirJEVOjgyeA5Guif-1" source="Tk0lirJEVOjgyeA5Guif-7" target="Tk0lirJEVOjgyeA5Guif-8">
          <mxGeometry relative="1" as="geometry" />
        </mxCell>
        <mxCell id="Tk0lirJEVOjgyeA5Guif-7" value="Consumer Lamda" style="sketch=0;points=[[0,0,0],[0.25,0,0],[0.5,0,0],[0.75,0,0],[1,0,0],[0,1,0],[0.25,1,0],[0.5,1,0],[0.75,1,0],[1,1,0],[0,0.25,0],[0,0.5,0],[0,0.75,0],[1,0.25,0],[1,0.5,0],[1,0.75,0]];outlineConnect=0;fontColor=#232F3E;fillColor=#ED7100;strokeColor=#ffffff;dashed=0;verticalLabelPosition=bottom;verticalAlign=top;align=center;html=1;fontSize=12;fontStyle=0;aspect=fixed;shape=mxgraph.aws4.resourceIcon;resIcon=mxgraph.aws4.lambda;" vertex="1" parent="Tk0lirJEVOjgyeA5Guif-1">
          <mxGeometry x="670" y="251" width="78" height="78" as="geometry" />
        </mxCell>
        <mxCell id="Tk0lirJEVOjgyeA5Guif-23" style="edgeStyle=orthogonalEdgeStyle;rounded=0;orthogonalLoop=1;jettySize=auto;html=1;" edge="1" parent="Tk0lirJEVOjgyeA5Guif-1" source="Tk0lirJEVOjgyeA5Guif-8" target="Tk0lirJEVOjgyeA5Guif-10">
          <mxGeometry relative="1" as="geometry" />
        </mxCell>
        <mxCell id="Tk0lirJEVOjgyeA5Guif-8" value="AWS Firehose" style="sketch=0;points=[[0,0,0],[0.25,0,0],[0.5,0,0],[0.75,0,0],[1,0,0],[0,1,0],[0.25,1,0],[0.5,1,0],[0.75,1,0],[1,1,0],[0,0.25,0],[0,0.5,0],[0,0.75,0],[1,0.25,0],[1,0.5,0],[1,0.75,0]];outlineConnect=0;fontColor=#232F3E;fillColor=#8C4FFF;strokeColor=#ffffff;dashed=0;verticalLabelPosition=bottom;verticalAlign=top;align=center;html=1;fontSize=12;fontStyle=0;aspect=fixed;shape=mxgraph.aws4.resourceIcon;resIcon=mxgraph.aws4.kinesis_data_firehose;" vertex="1" parent="Tk0lirJEVOjgyeA5Guif-1">
          <mxGeometry x="830" y="251" width="78" height="78" as="geometry" />
        </mxCell>
        <mxCell id="Tk0lirJEVOjgyeA5Guif-9" value="Transformation Lambda" style="sketch=0;points=[[0,0,0],[0.25,0,0],[0.5,0,0],[0.75,0,0],[1,0,0],[0,1,0],[0.25,1,0],[0.5,1,0],[0.75,1,0],[1,1,0],[0,0.25,0],[0,0.5,0],[0,0.75,0],[1,0.25,0],[1,0.5,0],[1,0.75,0]];outlineConnect=0;fontColor=#232F3E;fillColor=#ED7100;strokeColor=#ffffff;dashed=0;verticalLabelPosition=bottom;verticalAlign=top;align=center;html=1;fontSize=12;fontStyle=0;aspect=fixed;shape=mxgraph.aws4.resourceIcon;resIcon=mxgraph.aws4.lambda;" vertex="1" parent="Tk0lirJEVOjgyeA5Guif-1">
          <mxGeometry x="830" y="70" width="78" height="78" as="geometry" />
        </mxCell>
        <mxCell id="Tk0lirJEVOjgyeA5Guif-24" style="edgeStyle=orthogonalEdgeStyle;rounded=0;orthogonalLoop=1;jettySize=auto;html=1;" edge="1" parent="Tk0lirJEVOjgyeA5Guif-1" source="Tk0lirJEVOjgyeA5Guif-10" target="Tk0lirJEVOjgyeA5Guif-11">
          <mxGeometry relative="1" as="geometry" />
        </mxCell>
        <mxCell id="Tk0lirJEVOjgyeA5Guif-10" value="S3 Bucket&amp;nbsp;" style="sketch=0;points=[[0,0,0],[0.25,0,0],[0.5,0,0],[0.75,0,0],[1,0,0],[0,1,0],[0.25,1,0],[0.5,1,0],[0.75,1,0],[1,1,0],[0,0.25,0],[0,0.5,0],[0,0.75,0],[1,0.25,0],[1,0.5,0],[1,0.75,0]];outlineConnect=0;fontColor=#232F3E;fillColor=#7AA116;strokeColor=#ffffff;dashed=0;verticalLabelPosition=bottom;verticalAlign=top;align=center;html=1;fontSize=12;fontStyle=0;aspect=fixed;shape=mxgraph.aws4.resourceIcon;resIcon=mxgraph.aws4.s3;" vertex="1" parent="Tk0lirJEVOjgyeA5Guif-1">
          <mxGeometry x="970" y="251" width="78" height="78" as="geometry" />
        </mxCell>
        <mxCell id="Tk0lirJEVOjgyeA5Guif-11" value="Athena" style="sketch=0;points=[[0,0,0],[0.25,0,0],[0.5,0,0],[0.75,0,0],[1,0,0],[0,1,0],[0.25,1,0],[0.5,1,0],[0.75,1,0],[1,1,0],[0,0.25,0],[0,0.5,0],[0,0.75,0],[1,0.25,0],[1,0.5,0],[1,0.75,0]];outlineConnect=0;fontColor=#232F3E;fillColor=#8C4FFF;strokeColor=#ffffff;dashed=0;verticalLabelPosition=bottom;verticalAlign=top;align=center;html=1;fontSize=12;fontStyle=0;aspect=fixed;shape=mxgraph.aws4.resourceIcon;resIcon=mxgraph.aws4.athena;" vertex="1" parent="Tk0lirJEVOjgyeA5Guif-1">
          <mxGeometry x="1120" y="251" width="78" height="78" as="geometry" />
        </mxCell>
        <mxCell id="Tk0lirJEVOjgyeA5Guif-25" style="edgeStyle=orthogonalEdgeStyle;rounded=0;orthogonalLoop=1;jettySize=auto;html=1;" edge="1" parent="Tk0lirJEVOjgyeA5Guif-1" source="Tk0lirJEVOjgyeA5Guif-12" target="Tk0lirJEVOjgyeA5Guif-11">
          <mxGeometry relative="1" as="geometry" />
        </mxCell>
        <mxCell id="Tk0lirJEVOjgyeA5Guif-12" value="Glue Data Catalog" style="sketch=0;outlineConnect=0;fontColor=#232F3E;gradientColor=none;fillColor=#8C4FFF;strokeColor=none;dashed=0;verticalLabelPosition=bottom;verticalAlign=top;align=center;html=1;fontSize=12;fontStyle=0;aspect=fixed;pointerEvents=1;shape=mxgraph.aws4.glue_data_catalog;" vertex="1" parent="Tk0lirJEVOjgyeA5Guif-1">
          <mxGeometry x="1123" y="90" width="72" height="78" as="geometry" />
        </mxCell>
        <mxCell id="Tk0lirJEVOjgyeA5Guif-17" style="edgeStyle=orthogonalEdgeStyle;rounded=0;orthogonalLoop=1;jettySize=auto;html=1;entryX=0;entryY=0.5;entryDx=0;entryDy=0;entryPerimeter=0;" edge="1" parent="Tk0lirJEVOjgyeA5Guif-1" source="Tk0lirJEVOjgyeA5Guif-3" target="Tk0lirJEVOjgyeA5Guif-4">
          <mxGeometry relative="1" as="geometry" />
        </mxCell>
        <mxCell id="Tk0lirJEVOjgyeA5Guif-19" style="edgeStyle=orthogonalEdgeStyle;rounded=0;orthogonalLoop=1;jettySize=auto;html=1;entryX=0;entryY=0.5;entryDx=0;entryDy=0;entryPerimeter=0;" edge="1" parent="Tk0lirJEVOjgyeA5Guif-1" source="Tk0lirJEVOjgyeA5Guif-4" target="Tk0lirJEVOjgyeA5Guif-5">
          <mxGeometry relative="1" as="geometry" />
        </mxCell>
        <mxCell id="Tk0lirJEVOjgyeA5Guif-20" style="edgeStyle=orthogonalEdgeStyle;rounded=0;orthogonalLoop=1;jettySize=auto;html=1;entryX=0;entryY=0.5;entryDx=0;entryDy=0;entryPerimeter=0;" edge="1" parent="Tk0lirJEVOjgyeA5Guif-1" source="Tk0lirJEVOjgyeA5Guif-5" target="Tk0lirJEVOjgyeA5Guif-6">
          <mxGeometry relative="1" as="geometry" />
        </mxCell>
        <mxCell id="Tk0lirJEVOjgyeA5Guif-26" style="edgeStyle=orthogonalEdgeStyle;rounded=0;orthogonalLoop=1;jettySize=auto;html=1;entryX=0.5;entryY=0;entryDx=0;entryDy=0;entryPerimeter=0;" edge="1" parent="Tk0lirJEVOjgyeA5Guif-1" source="Tk0lirJEVOjgyeA5Guif-9" target="Tk0lirJEVOjgyeA5Guif-8">
          <mxGeometry relative="1" as="geometry" />
        </mxCell>
        <mxCell id="Tk0lirJEVOjgyeA5Guif-15" value="Private VPC" style="sketch=0;outlineConnect=0;gradientColor=none;html=1;whiteSpace=wrap;fontSize=12;fontStyle=0;shape=mxgraph.aws4.group;grIcon=mxgraph.aws4.group_vpc;strokeColor=#879196;fillColor=none;verticalAlign=top;align=left;spacingLeft=30;fontColor=#879196;dashed=0;" vertex="1" parent="Tk0lirJEVOjgyeA5Guif-1">
          <mxGeometry x="344" y="60" width="450" height="436" as="geometry" />
        </mxCell>
        <mxCell id="Tk0lirJEVOjgyeA5Guif-2" value="End User&lt;br&gt;API calls" style="html=1;verticalLabelPosition=bottom;align=center;labelBackgroundColor=#ffffff;verticalAlign=top;strokeWidth=2;strokeColor=#0080F0;shadow=0;dashed=0;shape=mxgraph.ios7.icons.smartphone;" vertex="1" parent="1">
          <mxGeometry x="100" y="320" width="50" height="60" as="geometry" />
        </mxCell>
        <mxCell id="Tk0lirJEVOjgyeA5Guif-16" style="edgeStyle=orthogonalEdgeStyle;rounded=0;orthogonalLoop=1;jettySize=auto;html=1;entryX=0;entryY=0.5;entryDx=0;entryDy=0;entryPerimeter=0;" edge="1" parent="1" source="Tk0lirJEVOjgyeA5Guif-2" target="Tk0lirJEVOjgyeA5Guif-3">
          <mxGeometry relative="1" as="geometry" />
        </mxCell>
      </root>
    </mxGraphModel>
  </diagram>
</mxfile>
